<?xml version="1.0" standalone="no"?>
<!DOCTYPE svg PUBLIC "-//W3C//DTD SVG 20010904//EN"
 "http://www.w3.org/TR/2001/REC-SVG-20010904/DTD/svg10.dtd">
<svg version="1.0" xmlns="http://www.w3.org/2000/svg"
 width="512.000000pt" height="512.000000pt" viewBox="0 0 512.000000 512.000000"
 preserveAspectRatio="xMidYMid meet">
<metadata>
Created by potrace 1.14, written by Peter Selinger 2001-2017
</metadata>
<g transform="translate(0.000000,512.000000) scale(0.100000,-0.100000)"
fill="#000000" stroke="none">
<path d="M588 4695 c-2 -2 -19 -7 -38 -10 -68 -12 -163 -67 -226 -129 -67 -68
-110 -146 -128 -234 -18 -87 -15 -3501 2 -3557 56 -173 182 -295 353 -340 46
-13 348 -15 2014 -15 2143 0 2010 -3 2129 57 111 56 218 199 244 325 6 30 9
691 8 1785 l-2 1738 -22 59 c-43 115 -118 206 -217 261 -122 69 18 65 -2151
64 -1079 0 -1963 -2 -1966 -4z m3875 -954 c4 0 7 -642 7 -1426 l0 -1425 -1905
0 -1905 0 0 1423 c0 783 2 1426 4 1428 4 3 3777 4 3799 0z"/>
<path d="M1476 2758 l-438 -440 438 -439 c242 -242 443 -438 447 -436 5 1 82
76 171 165 l163 163 -273 273 -273 272 270 270 c148 148 269 273 269 277 0 8
-326 338 -332 336 -2 0 -200 -199 -442 -441z"/>
<path d="M3041 3032 l-170 -169 274 -273 274 -273 -270 -269 c-148 -148 -269
-273 -269 -277 0 -8 315 -324 328 -329 4 -1 205 196 446 437 l439 439 -441
442 -442 441 -169 -169z"/>
</g>
</svg>
