<svg xmlns="http://www.w3.org/2000/svg" viewBox="0 0 89 27"><defs><style>.cls-1{fill:#fff;}</style></defs><g id="Layer_2" data-name="Layer 2"><g id="Layer_1-2" data-name="Layer 1"><path class="cls-1" d="M81.6,13.1H78.5c-2,0-3.1,1.5-3.1,4.1v9.3h-6V13.1H66.9c-2,0-3.1,1.5-3.1,4.1v9.3h-6V8.1h6v2.8a4.11,4.11,0,0,1,4.3-2.8h7.3v2.8a4.11,4.11,0,0,1,4.3-2.8h2ZM56.4,18.7H44a3.4,3.4,0,0,0,3.7,3.2,3,3,0,0,0,3.1-1.8l5.3,1.5c-1.3,3.2-4.5,5.1-8.4,5.1-6.5,0-9.5-5.1-9.5-9.5s2.6-9.4,9.1-9.4c6.9,0,9.2,5.2,9.2,9.1A8.16,8.16,0,0,1,56.4,18.7Zm-5.7-3.5a3.15,3.15,0,0,0-3.3-3c-1.9,0-3,.8-3.4,3ZM27.8,26.5H33L39.6,8.2h-6L30.4,18.9,27.2,8.1h-6Zm-24.4,0H9.3V13.1H15V26.5h5.9V8.1H9.3V7a2,2,0,0,1,2.2-2H15V0H10.6C6.3,0,3.4,2.7,3.4,6.6V8.1H0v5H3.4Z"/><path class="cls-1" d="M85.3,27a3.7,3.7,0,1,0-3.7-3.7A3.76,3.76,0,0,0,85.3,27Z"/></g></g></svg>