<svg xmlns="http://www.w3.org/2000/svg" viewBox="0 0 300 72.33"><defs><style>.cls-1{fill:#fff;}</style></defs><g id="Layer_2" data-name="Layer 2"><g id="Layer_1-2" data-name="Layer 1"><path class="cls-1" d="M57.13,0l6.62,9.29L97.27,0m-75,72.33L40.44,54.61,29.52,42.9M54.38,0,44.69,8.74,61,9.35M16.71,0l3.48,7.13,19.18,1.2M27,37,41.15,10.55,0,8.33M28.63,38.66,42,53,56.78,38.57l4.58-27-18-.92"/><path class="cls-1" d="M85.45,33.9H81.78L78.57,54.19a1.18,1.18,0,0,1-1.12,1H70.11a.8.8,0,0,1-.82-1L73.8,25.74c1.14-7.2,4.77-8.79,9.75-8.79a25.14,25.14,0,0,1,4.43.38c.56.1.94.44.86,1l-.73,4.59a1.14,1.14,0,0,1-1.16.92h-2c-1.2,0-1.62.48-1.85,1.93l-.2,1.3h3.67a.81.81,0,0,1,.81,1l-.78,4.93a1.18,1.18,0,0,1-1.12,1Zm18.32.34h-.68a12.93,12.93,0,0,0-5.73,1.11l-3,18.74a1.25,1.25,0,0,1-1.14,1.06H86a.92.92,0,0,1-.9-1.06L89.25,28a1.08,1.08,0,0,1,1.12-1h7c.67,0,.93.25.81,1L98,29.17a8.68,8.68,0,0,1,6.87-2.51c.82,0,.93.19.81,1l-.93,5.89c-.09.59-.31.73-.94.73ZM128,43.71H113l0,.09c-.4,2.56.41,4.16,3.93,4.16,2.56,0,7.33-.24,9.24-.39.78,0,1,.09.93.82l-.69,4.35a1.4,1.4,0,0,1-1.18,1.35,34.94,34.94,0,0,1-10.72,1.5c-6.52,0-12-3.43-10.55-12.66l.51-3.18c1.34-8.5,7-13.14,14.92-13.14,8.46,0,11.52,5.36,10.29,13.14l-.46,2.9A1.23,1.23,0,0,1,128,43.71Zm-7-5.27c.46-2.9-.43-4.63-2.84-4.63s-3.85,1.74-4.31,4.63l0,.15H121l0-.15Zm33.77,5.27h-15l0,.09c-.4,2.56.41,4.16,3.93,4.16,2.56,0,7.33-.24,9.24-.39.78,0,1,.09.93.82l-.68,4.35A1.41,1.41,0,0,1,152,54.09a35,35,0,0,1-10.72,1.5c-6.52,0-12-3.43-10.55-12.66l.5-3.18c1.35-8.5,7-13.14,14.93-13.14,8.45,0,11.51,5.36,10.28,13.14l-.46,2.9a1.22,1.22,0,0,1-1.18,1.06Zm-7-5.27c.46-2.9-.43-4.63-2.84-4.63s-3.85,1.74-4.31,4.63l0,.15h7.15Zm16.84,16.71h-7.29a1,1,0,0,1-.9-1.06L162,18.78a1.27,1.27,0,0,1,1.21-1h7.29a.8.8,0,0,1,.82,1l-5.59,35.31a1.3,1.3,0,0,1-1.14,1.06Zm25.67,0h-6.72a.8.8,0,0,1-.81-1l.16-1a13.54,13.54,0,0,1-7.29,2.42c-3.81,0-7.92-2.13-6.89-8.65l.1-.58c.91-5.79,5.64-7.87,13.7-7.87h2.08l.22-1.4c.38-2.37-.33-2.8-2.74-2.8-2.71,0-7.09.24-8.46.34-.83,0-1-.39-.91-1l.74-4.68c.12-.73.54-1,1.15-1.16a41,41,0,0,1,9-1.16c7,0,11.72,2.51,10.47,10.43l-2.71,17.1a1.18,1.18,0,0,1-1.12,1Zm-6.18-11.64H181.7c-2.42,0-3.51.78-3.83,2.8l-.07.49c-.26,1.64.77,2.12,2.12,2.12a9.43,9.43,0,0,0,3.4-.72l.74-4.69Zm34.07,11.64h-7.25a.91.91,0,0,1-.89-1.06l2.59-16.37c.41-2.56-.28-3.38-2.46-3.38a9.58,9.58,0,0,0-3.78,1l-3,18.74a1.23,1.23,0,0,1-1.13,1.06H195a.91.91,0,0,1-.89-1.06L198.23,28a1.19,1.19,0,0,1,1.12-1h6.71a.82.82,0,0,1,.82,1l-.18,1.11a14.3,14.3,0,0,1,8.36-2.46c7.58,0,7.71,5.31,6.8,11.06l-2.6,16.37a1.23,1.23,0,0,1-1.13,1.06Zm21.42-.33a29.84,29.84,0,0,1-6.74.77c-7.39,0-10.79-4.74-9.53-12.66l.57-3.62c1.25-7.87,6.17-12.7,13.56-12.7a26.66,26.66,0,0,1,6.49.77c.6.14.9.39.8,1l-.86,5.46a1,1,0,0,1-1.16.92,53.9,53.9,0,0,0-5.5-.34c-2.08,0-3.49,1.31-4.06,4.88l-.57,3.62c-.57,3.58.44,4.83,2.52,4.83a44.09,44.09,0,0,0,5.6-.29c.74-.09,1,.29.87.92l-.86,5.41c-.1.63-.48.87-1.13,1ZM267.9,43.71h-15l0,.09c-.4,2.56.41,4.16,3.93,4.16,2.56,0,7.33-.24,9.24-.39.78,0,1.05.09.93.82l-.69,4.35a1.39,1.39,0,0,1-1.18,1.35,34.91,34.91,0,0,1-10.71,1.5c-6.52,0-12-3.43-10.55-12.66l.5-3.18c1.35-8.5,7-13.14,14.93-13.14,8.45,0,11.51,5.36,10.28,13.13l-.46,2.9a1.21,1.21,0,0,1-1.18,1.06Zm-7-5.27c.46-2.9-.42-4.64-2.84-4.64s-3.85,1.74-4.31,4.64l0,.15h7.15ZM283.09,27l-4.3,27.05a1.25,1.25,0,0,1-1.14,1.06h-7.24a.92.92,0,0,1-.9-1.06l2.86-17.89L283.09,27Z"/><path class="cls-1" d="M285.56,27l-1.49,9.28L300,27"/></g></g></svg>