<svg xmlns="http://www.w3.org/2000/svg" viewBox="0 0 130 29.45"><defs><style>.cls-1{fill:#fff;}</style></defs><g id="Layer_2" data-name="Layer 2"><g id="Layer_1-2" data-name="Layer 1"><path class="cls-1" d="M84.21,4.77v8.35c0,2.85-3.42,5.24-7.52,5.24S69.17,16,69.17,13.12V4.87H66.11v8.2c0,4.56,4.78,8.29,10.58,8.29s10.58-3.73,10.58-8.29V4.77Zm42.73,0v8.35c0,2.85-3.42,5.24-7.52,5.24S111.9,16,111.9,13.12V4.87h-3.06v8.2c0,4.56,4.77,8.29,10.58,8.29S130,17.63,130,13.07V4.77ZM92.61,21.42H89.55V4.77h3.06v6.74c4.77-6.22,13.48-6.74,13.59-6.74l.15,3.06C105.78,7.88,92.61,8.66,92.61,21.42ZM61.19,4.77V7.26a12.25,12.25,0,0,0-7.52-2.49c-5.86,0-10.58,3.73-10.58,8.3s4.77,8.29,10.58,8.29a11.94,11.94,0,0,0,7.52-2.48V21.1c0,2.86-3.42,5.24-7.52,5.24-3.27,0-6.12-1.55-7.1-3.63l-3,.94C45,27,49,29.45,53.67,29.45c5.7,0,10.37-3.57,10.58-8V4.77ZM53.67,18.3c-4.1,0-7.52-2.38-7.52-5.23s3.42-5.24,7.52-5.24,7.52,2.39,7.52,5.24S57.77,18.3,53.67,18.3Zm-29.51-.72a20,20,0,0,1,4.2,1.5,19,19,0,0,1,3.69,2.28,25.19,25.19,0,0,1,3.16,3,19.42,19.42,0,0,1,2.54,3.53H32.31a18.76,18.76,0,0,0-2.7-2.65,18.74,18.74,0,0,0-3.22-2,17.33,17.33,0,0,0-3.57-1.3,16.18,16.18,0,0,0-3.94-.46,17,17,0,0,0-4,.46,15.52,15.52,0,0,0-3.58,1.3,18.24,18.24,0,0,0-3.16,2,16.51,16.51,0,0,0-2.7,2.65H0a21.72,21.72,0,0,1,2.54-3.58,21.55,21.55,0,0,1,3.22-3,22.57,22.57,0,0,1,3.73-2.23,23.86,23.86,0,0,1,4.2-1.5,18,18,0,0,1-3.58-1.25A19.41,19.41,0,0,1,6.9,14.47,22,22,0,0,1,4,12.08,24.79,24.79,0,0,1,1.66,9.23,12.15,12.15,0,0,1,2.85,7.62,18.53,18.53,0,0,1,4.2,6.17a13.41,13.41,0,0,1,1.5-1.4c.52-.41,1-.83,1.56-1.19a3.31,3.31,0,0,1,.36-1.25,5.08,5.08,0,0,1,.78-1A3.12,3.12,0,0,1,9.49.57a3.5,3.5,0,0,1,1.3-.26,3.09,3.09,0,0,1,1.4.31,4.6,4.6,0,0,1,1.14.78,3.38,3.38,0,0,1,.77,1.14A2.42,2.42,0,0,1,14.52,4a3,3,0,0,1-.31,1.4,4.42,4.42,0,0,1-.78,1.14,4.6,4.6,0,0,1-1.14.78,3.88,3.88,0,0,1-1.4.26h-.36a1,1,0,0,1-.37-.05,1.43,1.43,0,0,1-.36-.1c-.1-.06-.26-.11-.36-.16a4.76,4.76,0,0,0-.57.47,7.12,7.12,0,0,1-.57.46,4.76,4.76,0,0,0-.57.47,4.25,4.25,0,0,0-.52.52,18.21,18.21,0,0,0,2.43,2,12.28,12.28,0,0,0,2.81,1.5,15.15,15.15,0,0,0,3.11.94,18.73,18.73,0,0,0,3.32.36,14.05,14.05,0,0,0,3.31-.36,19.47,19.47,0,0,0,3.12-.94,18.36,18.36,0,0,0,2.8-1.5c.88-.62,1.65-1.3,2.43-2h.05V8.56a4.71,4.71,0,0,1,.26-1.46,4,4,0,0,1,.78-1.24,3.22,3.22,0,0,1,1.25-.78,4.6,4.6,0,0,1,1.45-.26,4.65,4.65,0,0,1,1.45.26A3.67,3.67,0,0,1,37,5.86a4,4,0,0,1,.78,1.24,3.57,3.57,0,0,1,0,2.91A4.9,4.9,0,0,1,37,11.2a3.2,3.2,0,0,1-1.19.78,3.44,3.44,0,0,1-1.45.31h-.42a.3.3,0,0,1-.2,0c-.06,0-.11-.05-.21-.05a23.16,23.16,0,0,1-2,1.76,15.52,15.52,0,0,1-2.29,1.5,18.54,18.54,0,0,1-2.48,1.25A10.09,10.09,0,0,1,24.16,17.58Z"/><path class="cls-1" d="M16.59,4.51V3.89c0-.31-.05-.62-.05-.93A4.32,4.32,0,0,0,16.33,2a4.74,4.74,0,0,0-.41-.88c-.16-.26-.36-.57-.52-.78a4.19,4.19,0,0,1,.83-.1c.31,0,.62-.05.93-.05s.63,0,.94,0A1.54,1.54,0,0,1,18.93,0a22.65,22.65,0,0,1,3.32.26A15.86,15.86,0,0,1,25.41,1a14.49,14.49,0,0,1,2.95,1.24,18.1,18.1,0,0,1,2.7,1.66,5.78,5.78,0,0,0-.83.73,5.24,5.24,0,0,0-.67.88c-.16.31-.37.62-.52,1a4.17,4.17,0,0,0-.31,1.09,16.22,16.22,0,0,0-2.18-1.4,24.6,24.6,0,0,0-2.39-1,20.94,20.94,0,0,0-2.54-.63,24.34,24.34,0,0,0-2.69-.2H17.68a2.05,2.05,0,0,0-.57,0A2.46,2.46,0,0,0,16.59,4.51Z"/><path class="cls-1" d="M15.5,9.49a3,3,0,0,1,.32-1.4A4.16,4.16,0,0,1,16.59,7a3.56,3.56,0,0,1,1.14-.78,3.09,3.09,0,0,1,1.4-.31,3.48,3.48,0,0,1,1.46.31A4.9,4.9,0,0,1,21.78,7a4.42,4.42,0,0,1,.78,1.14,4.06,4.06,0,0,1,.26,1.4,4.1,4.1,0,0,1-.26,1.4A2.91,2.91,0,0,1,21.78,12a3.29,3.29,0,0,1-1.19.78,3.48,3.48,0,0,1-1.46.31,3.09,3.09,0,0,1-1.4-.31A4.6,4.6,0,0,1,16.59,12a3.38,3.38,0,0,1-.77-1.14A3.07,3.07,0,0,1,15.5,9.49Z"/></g></g></svg>