<svg xmlns="http://www.w3.org/2000/svg" viewBox="0 0 101.03 28"><defs><style>.cls-1{fill:#fff;}</style></defs><g id="Layer_2" data-name="Layer 2"><g id="Layer_1-2" data-name="Layer 1"><path class="cls-1" d="M27.7,19.06A6.54,6.54,0,0,1,22.52,16c.67-5.34,2.62-7,5.2-7s4.54,2,4.54,5-2,5-4.54,5m0-13.34a7.77,7.77,0,0,0-7.9,6.08,25.41,25.41,0,0,1-1.93-5.62H11.52V14c0,2.87-1.3,5-3.85,5s-4-2.12-4-5V6.12H0V14a8.57,8.57,0,0,0,2.11,6,7.27,7.27,0,0,0,5.54,2.35c4.41,0,7.5-3.39,7.5-8.24V8.77a25.74,25.74,0,0,0,3.66,8.05L16.86,28h3.72l1.29-7.92a10.35,10.35,0,0,0,1.36,1,8.32,8.32,0,0,0,4.14,1.28h.34a8.1,8.1,0,0,0,8.18-8V14A8.13,8.13,0,0,0,28,5.69H27.7M80.32,7.86V6.18h-3.6V21.81h3.65V15.69c0-3.77.34-6.48,5.4-6.13V6c-2.36-.18-4.2.31-5.45,1.87M55,6.17,52.39,17.11,49.57,6.17H44.93L42.11,17.11,39.47,6.17H35.78l4,15.65h4.38l3-11.11,3,11.11h4.38L58.92,6.17Zm11.91,12.9c-2.59,0-4.53-2.05-4.53-5s2-5,4.53-5A4.6,4.6,0,0,1,71.52,14c0,3-2,5-4.54,5M67,5.65a8.11,8.11,0,0,0-8.22,8c0,.12,0,.24,0,.36a8.18,8.18,0,1,0,16.35.57V14a8.11,8.11,0,0,0-7.91-8.31h-.27m24,8.44h.84l5.09,7.69H101l-5.85-8.53a7.68,7.68,0,0,0,4.74-7.11H96.29c0,3.37-2.66,4.65-5.3,4.65V0H87.34V21.82H91Z"/></g></g></svg>